<?xml version="1.0" encoding="UTF-8"?>
<!DOCTYPE svg PUBLIC "-//W3C//DTD SVG 1.1//EN" "http://www.w3.org/Graphics/SVG/1.1/DTD/svg11.dtd">
<svg xmlns="http://www.w3.org/2000/svg" version="1.1" width="164px" height="308px" style="shape-rendering:geometricPrecision; text-rendering:geometricPrecision; image-rendering:optimizeQuality; fill-rule:evenodd; clip-rule:evenodd" xmlns:xlink="http://www.w3.org/1999/xlink">
<g><path style="opacity:1" fill="#151311" d="M 69.5,-0.5 C 76.8333,-0.5 84.1667,-0.5 91.5,-0.5C 104.697,1.62986 116.697,6.79653 127.5,15C 143.034,28.5754 154.201,45.0754 161,64.5C 163.238,76.2566 162.905,87.9233 160,99.5C 156.881,107.739 153.214,115.739 149,123.5C 138.995,141.652 128.829,159.652 118.5,177.5C 133.26,201.362 148.26,225.028 163.5,248.5C 163.5,249.833 163.5,251.167 163.5,252.5C 151.916,270.666 140.583,288.999 129.5,307.5C 128.833,307.5 128.167,307.5 127.5,307.5C 112.227,283.874 96.8933,260.207 81.5,236.5C 66.2394,260.026 51.2394,283.692 36.5,307.5C 35.1667,307.5 33.8333,307.5 32.5,307.5C 22.259,288.95 11.259,270.95 -0.5,253.5C -0.5,251.833 -0.5,250.167 -0.5,248.5C 14.9703,224.841 30.3036,201.008 45.5,177C 28.795,151.428 14.295,124.594 2,96.5C 1.16058,92.3628 0.327248,88.3628 -0.5,84.5C -0.5,81.5 -0.5,78.5 -0.5,75.5C 4.74434,48.2065 18.7443,26.3731 41.5,10C 50.1935,4.47364 59.5268,0.973644 69.5,-0.5 Z M 78.5,57.5 C 91.258,58.1984 103.258,61.5318 114.5,67.5C 104.237,85.7066 93.2372,103.373 81.5,120.5C 69.7487,103.337 58.7487,85.6705 48.5,67.5C 58.1968,62.9175 68.1968,59.5842 78.5,57.5 Z"/></g>
<g><path style="opacity:1" fill="#e8c220" d="M 13.5,52.5 C 9.24157,65.4837 7.74157,78.8171 9,92.5C 11.2324,96.1431 12.3991,100.143 12.5,104.5C 5.92589,90.8034 4.75923,76.4701 9,61.5C 10.0399,58.1766 11.5399,55.1766 13.5,52.5 Z"/></g>
<g><path style="opacity:1" fill="#e0bc22" d="M 146.5,48.5 C 156.054,62.4463 158.887,77.7796 155,94.5C 152.961,100.149 150.461,105.482 147.5,110.5C 149.053,104.294 151.22,98.2939 154,92.5C 155.165,81.9743 154.331,71.641 151.5,61.5C 150.281,60.3539 148.948,59.3539 147.5,58.5C 148.022,57.3926 148.355,56.2259 148.5,55C 147.382,52.941 146.715,50.7743 146.5,48.5 Z"/></g>
<g><path style="opacity:1" fill="#cdac21" d="M 125.5,26.5 C 126.65,31.3158 126.816,36.3158 126,41.5C 125.61,44.1042 124.776,46.4375 123.5,48.5C 122.833,46.1806 122.666,43.8473 123,41.5C 123.333,42.5 123.667,43.5 124,44.5C 125.239,38.5652 125.739,32.5652 125.5,26.5 Z"/></g>
<g><path style="opacity:1" fill="#fccb04" d="M 12.5,104.5 C 12.3991,100.143 11.2324,96.1431 9,92.5C 7.74157,78.8171 9.24157,65.4837 13.5,52.5C 17.5812,44.0189 22.9146,36.3522 29.5,29.5C 31.1223,46.5339 36.6223,62.2006 46,76.5C 79.6056,129.768 113.606,182.768 148,235.5C 151.251,240.423 154.085,245.59 156.5,251C 147.632,265.9 138.632,280.734 129.5,295.5C 128.5,296.833 127.5,296.833 126.5,295.5C 91.3298,240.502 57.1632,184.835 24,128.5C 19.8826,120.6 16.0493,112.6 12.5,104.5 Z"/></g>
<g><path style="opacity:1" fill="#fbcb05" d="M 137.5,35.5 C 141.237,39.3021 144.237,43.6355 146.5,48.5C 146.715,50.7743 147.382,52.941 148.5,55C 148.355,56.2259 148.022,57.3926 147.5,58.5C 148.948,59.3539 150.281,60.3539 151.5,61.5C 154.331,71.641 155.165,81.9743 154,92.5C 151.22,98.2939 149.053,104.294 147.5,110.5C 137.694,131.455 126.361,151.455 113.5,170.5C 103.596,156.752 94.2622,142.585 85.5,128C 97.119,109.266 108.619,90.433 120,71.5C 125.234,62.705 129.067,53.3717 131.5,43.5C 132.67,41.3498 133.67,39.0164 134.5,36.5C 135.325,35.6143 136.325,35.281 137.5,35.5 Z"/></g>
<g><path style="opacity:1" fill="#d9b72d" d="M 137.5,35.5 C 136.325,35.281 135.325,35.6143 134.5,36.5C 133.67,39.0164 132.67,41.3498 131.5,43.5C 132.065,38.8507 132.565,34.184 133,29.5C 134.752,31.3509 136.252,33.3509 137.5,35.5 Z"/></g>
<g><path style="opacity:1" fill="#faca06" d="M 125.5,26.5 C 125.739,32.5652 125.239,38.5652 124,44.5C 123.667,43.5 123.333,42.5 123,41.5C 122.666,43.8473 122.833,46.1806 123.5,48.5C 122.643,53.4252 120.643,57.7586 117.5,61.5C 106.324,56.4558 94.6569,53.1225 82.5,51.5C 69.6247,52.7912 57.2914,56.1245 45.5,61.5C 37.9778,50.7384 35.1444,38.7384 37,25.5C 38.2106,22.2409 40.0439,19.4075 42.5,17C 68.6536,1.47278 94.6536,1.80611 120.5,18C 123.072,20.3128 124.739,23.1461 125.5,26.5 Z"/></g>
<g><path style="opacity:1" fill="#faca07" d="M 48.5,183.5 C 49.3764,183.369 50.0431,183.702 50.5,184.5C 59.767,199.372 68.767,214.372 77.5,229.5C 63.6673,252.502 49.334,275.169 34.5,297.5C 25.0343,282.067 15.701,266.567 6.5,251C 20.3398,228.343 34.3398,205.843 48.5,183.5 Z"/></g>
</svg>
